<?xml version="1.0" encoding="UTF-8" standalone="no"?>
<!DOCTYPE svg PUBLIC "-//W3C//DTD SVG 1.1//EN"
 "http://www.w3.org/Graphics/SVG/1.1/DTD/svg11.dtd">
<!-- Generated by graphviz version 15.0.0 (20260523.1842)
 -->
<!-- Title: Bluetape4kAwsArchitecture Pages: 1 -->
<svg width="612pt" height="457pt"
 viewBox="0.00 0.00 612.00 457.00" xmlns="http://www.w3.org/2000/svg" xmlns:xlink="http://www.w3.org/1999/xlink">
<g id="graph0" class="graph" transform="scale(1 1) rotate(0) translate(25.2 431.56)">
<title>Bluetape4kAwsArchitecture</title>
<polygon fill="#ffffff" stroke="none" points="-25.2,25.2 -25.2,-431.56 586.99,-431.56 586.99,25.2 -25.2,25.2"/>
<!-- apps -->
<g id="node1" class="node">
<title>apps</title>
<path fill="#e0f2fe" stroke="#38bdf8" d="M234.66,-406.36C234.66,-406.36 12,-406.36 12,-406.36 6,-406.36 0,-400.36 0,-394.36 0,-394.36 0,-370.9 0,-370.9 0,-364.9 6,-358.9 12,-358.9 12,-358.9 234.66,-358.9 234.66,-358.9 240.66,-358.9 246.66,-364.9 246.66,-370.9 246.66,-370.9 246.66,-394.36 246.66,-394.36 246.66,-400.36 240.66,-406.36 234.66,-406.36"/>
<text xml:space="preserve" text-anchor="middle" x="123.33" y="-388.48" font-family="Architects Daughter" font-size="12.00">Application code</text>
<text xml:space="preserve" text-anchor="middle" x="123.33" y="-371.23" font-family="Architects Daughter" font-size="12.00">Kotlin service, Ktor app, Spring Boot app</text>
</g>
<!-- facade -->
<g id="node2" class="node">
<title>facade</title>
<path fill="#fef3c7" stroke="#f59e0b" d="M355.16,-296.9C355.16,-296.9 93.5,-296.9 93.5,-296.9 87.5,-296.9 81.5,-290.9 81.5,-284.9 81.5,-284.9 81.5,-261.44 81.5,-261.44 81.5,-255.44 87.5,-249.44 93.5,-249.44 93.5,-249.44 355.16,-249.44 355.16,-249.44 361.16,-249.44 367.16,-255.44 367.16,-261.44 367.16,-261.44 367.16,-284.9 367.16,-284.9 367.16,-290.9 361.16,-296.9 355.16,-296.9"/>
<text xml:space="preserve" text-anchor="middle" x="224.33" y="-279.02" font-family="Architects Daughter" font-size="12.00">bluetape4k AWS APIs</text>
<text xml:space="preserve" text-anchor="middle" x="224.33" y="-261.77" font-family="Architects Daughter" font-size="12.00">coroutine adapters, templates, plugins, registries</text>
</g>
<!-- apps&#45;&gt;facade -->
<g id="edge1" class="edge">
<title>apps&#45;&gt;facade</title>
<path fill="none" stroke="#64748b" stroke-width="1.5" d="M164.08,-358.6C164.08,-358.6 164.08,-306.9 164.08,-306.9"/>
<polygon fill="#64748b" stroke="#64748b" stroke-width="1.5" points="166.71,-306.9 164.08,-299.4 161.46,-306.9 166.71,-306.9"/>
</g>
<!-- sdk -->
<g id="node3" class="node">
<title>sdk</title>
<path fill="#dcfce7" stroke="#22c55e" d="M347.91,-187.44C347.91,-187.44 144.75,-187.44 144.75,-187.44 138.75,-187.44 132.75,-181.44 132.75,-175.44 132.75,-175.44 132.75,-151.98 132.75,-151.98 132.75,-145.98 138.75,-139.98 144.75,-139.98 144.75,-139.98 347.91,-139.98 347.91,-139.98 353.91,-139.98 359.91,-145.98 359.91,-151.98 359.91,-151.98 359.91,-175.44 359.91,-175.44 359.91,-181.44 353.91,-187.44 347.91,-187.44"/>
<text xml:space="preserve" text-anchor="middle" x="246.33" y="-169.56" font-family="Architects Daughter" font-size="12.00">AWS SDKs</text>
<text xml:space="preserve" text-anchor="middle" x="246.33" y="-152.31" font-family="Architects Daughter" font-size="12.00">Java SDK v2 and AWS SDK for Kotlin</text>
</g>
<!-- facade&#45;&gt;sdk -->
<g id="edge2" class="edge">
<title>facade&#45;&gt;sdk</title>
<path fill="none" stroke="#64748b" stroke-width="1.5" d="M246.33,-249.14C246.33,-249.14 246.33,-197.44 246.33,-197.44"/>
<polygon fill="#64748b" stroke="#64748b" stroke-width="1.5" points="248.96,-197.44 246.33,-189.94 243.71,-197.44 248.96,-197.44"/>
</g>
<!-- infra -->
<g id="node4" class="node">
<title>infra</title>
<path fill="#fff7ed" stroke="#f97316" d="M462.91,-80.89C462.91,-85.35 406.62,-88.98 337.33,-88.98 268.04,-88.98 211.75,-85.35 211.75,-80.89 211.75,-80.89 211.75,-8.09 211.75,-8.09 211.75,-3.63 268.04,0 337.33,0 406.62,0 462.91,-3.63 462.91,-8.09 462.91,-8.09 462.91,-80.89 462.91,-80.89"/>
<path fill="none" stroke="#f97316" d="M462.91,-80.89C462.91,-76.42 406.62,-72.8 337.33,-72.8 268.04,-72.8 211.75,-76.42 211.75,-80.89"/>
<text xml:space="preserve" text-anchor="middle" x="337.33" y="-58.96" font-family="Architects Daughter" font-size="12.00">AWS services or local emulators</text>
<text xml:space="preserve" text-anchor="middle" x="337.33" y="-41.71" font-family="Architects Daughter" font-size="12.00">S3, SQS, SNS, DynamoDB, KMS, SES,</text>
<text xml:space="preserve" text-anchor="middle" x="337.33" y="-24.46" font-family="Architects Daughter" font-size="12.00">CloudWatch, Kinesis, STS, JDBC databases</text>
</g>
<!-- sdk&#45;&gt;infra -->
<g id="edge3" class="edge">
<title>sdk&#45;&gt;infra</title>
<path fill="none" stroke="#64748b" stroke-width="1.5" d="M285.83,-139.58C285.83,-139.58 285.83,-99.09 285.83,-99.09"/>
<polygon fill="#64748b" stroke="#64748b" stroke-width="1.5" points="288.46,-99.09 285.83,-91.59 283.21,-99.09 288.46,-99.09"/>
</g>
<!-- tests -->
<g id="node5" class="node">
<title>tests</title>
<path fill="#f3e8ff" stroke="#a855f7" d="M549.79,-406.36C549.79,-406.36 294.88,-406.36 294.88,-406.36 288.88,-406.36 282.88,-400.36 282.88,-394.36 282.88,-394.36 282.88,-370.9 282.88,-370.9 282.88,-364.9 288.88,-358.9 294.88,-358.9 294.88,-358.9 549.79,-358.9 549.79,-358.9 555.79,-358.9 561.79,-364.9 561.79,-370.9 561.79,-370.9 561.79,-394.36 561.79,-394.36 561.79,-400.36 555.79,-406.36 549.79,-406.36"/>
<text xml:space="preserve" text-anchor="middle" x="422.33" y="-388.48" font-family="Architects Daughter" font-size="12.00">Verification examples</text>
<text xml:space="preserve" text-anchor="middle" x="422.33" y="-371.23" font-family="Architects Daughter" font-size="12.00">LocalStack, Floci, PostgreSQL Testcontainers</text>
</g>
<!-- tests&#45;&gt;facade -->
<g id="edge4" class="edge">
<title>tests&#45;&gt;facade</title>
<path fill="none" stroke="#64748b" stroke-width="1.5" stroke-dasharray="5,2" d="M325.02,-358.6C325.02,-358.6 325.02,-306.9 325.02,-306.9"/>
<polygon fill="#64748b" stroke="#64748b" stroke-width="1.5" points="327.64,-306.9 325.02,-299.4 322.39,-306.9 327.64,-306.9"/>
<text xml:space="preserve" text-anchor="middle" x="311.33" y="-324.4" font-family="Comic Mono" font-size="10.00">exercise</text>
</g>
<!-- tests&#45;&gt;infra -->
<g id="edge5" class="edge">
<title>tests&#45;&gt;infra</title>
<path fill="none" stroke="#64748b" stroke-width="1.5" stroke-dasharray="5,2" d="M415.03,-358.58C415.03,-358.58 415.03,-98.69 415.03,-98.69"/>
<polygon fill="#64748b" stroke="#64748b" stroke-width="1.5" points="417.66,-98.69 415.04,-91.19 412.41,-98.69 417.66,-98.69"/>
<text xml:space="preserve" text-anchor="middle" x="440.71" y="-214.94" font-family="Comic Mono" font-size="10.00">emulate</text>
</g>
</g>
</svg>
