<?xml version="1.0" encoding="UTF-8" standalone="no"?>
<!DOCTYPE svg PUBLIC "-//W3C//DTD SVG 1.1//EN"
 "http://www.w3.org/Graphics/SVG/1.1/DTD/svg11.dtd">
<!-- Generated by graphviz version 15.0.0 (20260523.1842)
 -->
<!-- Title: Bluetape4kAwsArchitecture Pages: 1 -->
<svg width="585pt" height="410pt"
 viewBox="0.00 0.00 585.00 410.00" xmlns="http://www.w3.org/2000/svg" xmlns:xlink="http://www.w3.org/1999/xlink">
<g id="graph0" class="graph" transform="scale(1 1) rotate(0) translate(25.2 384.49)">
<title>Bluetape4kAwsArchitecture</title>
<polygon fill="#ffffff" stroke="none" points="-25.2,25.2 -25.2,-384.49 559.49,-384.49 559.49,25.2 -25.2,25.2"/>
<!-- apps -->
<g id="node1" class="node">
<title>apps</title>
<path fill="#e0f2fe" stroke="#38bdf8" d="M223.41,-359.29C223.41,-359.29 12,-359.29 12,-359.29 6,-359.29 0,-353.29 0,-347.29 0,-347.29 0,-332.83 0,-332.83 0,-326.83 6,-320.83 12,-320.83 12,-320.83 223.41,-320.83 223.41,-320.83 229.41,-320.83 235.41,-326.83 235.41,-332.83 235.41,-332.83 235.41,-347.29 235.41,-347.29 235.41,-353.29 229.41,-359.29 223.41,-359.29"/>
<text xml:space="preserve" text-anchor="middle" x="117.7" y="-341.41" font-family="Helvetica,sans-Serif" font-size="12.00">Application code</text>
<text xml:space="preserve" text-anchor="middle" x="117.7" y="-328.66" font-family="Helvetica,sans-Serif" font-size="12.00">Kotlin service, Ktor app, Spring Boot app</text>
</g>
<!-- facade -->
<g id="node2" class="node">
<title>facade</title>
<path fill="#fef3c7" stroke="#f59e0b" d="M336.03,-259.58C336.03,-259.58 83.38,-259.58 83.38,-259.58 77.38,-259.58 71.37,-253.58 71.37,-247.58 71.37,-247.58 71.37,-233.12 71.37,-233.12 71.37,-227.12 77.37,-221.12 83.37,-221.12 83.37,-221.12 336.03,-221.12 336.03,-221.12 342.03,-221.12 348.03,-227.12 348.03,-233.12 348.03,-233.12 348.03,-247.58 348.03,-247.58 348.03,-253.58 342.03,-259.58 336.03,-259.58"/>
<text xml:space="preserve" text-anchor="middle" x="209.7" y="-241.7" font-family="Helvetica,sans-Serif" font-size="12.00">bluetape4k AWS APIs</text>
<text xml:space="preserve" text-anchor="middle" x="209.7" y="-228.95" font-family="Helvetica,sans-Serif" font-size="12.00">coroutine adapters, templates, plugins, registries</text>
</g>
<!-- apps&#45;&gt;facade -->
<g id="edge1" class="edge">
<title>apps&#45;&gt;facade</title>
<path fill="none" stroke="#64748b" stroke-width="1.5" d="M153.39,-320.36C153.39,-320.36 153.39,-269.78 153.39,-269.78"/>
<polygon fill="#64748b" stroke="#64748b" stroke-width="1.5" points="156.02,-269.78 153.39,-262.28 150.77,-269.78 156.02,-269.78"/>
</g>
<!-- sdk -->
<g id="node3" class="node">
<title>sdk</title>
<path fill="#dcfce7" stroke="#22c55e" d="M328.66,-159.87C328.66,-159.87 130.75,-159.87 130.75,-159.87 124.75,-159.87 118.75,-153.87 118.75,-147.87 118.75,-147.87 118.75,-133.41 118.75,-133.41 118.75,-127.41 124.75,-121.41 130.75,-121.41 130.75,-121.41 328.66,-121.41 328.66,-121.41 334.66,-121.41 340.66,-127.41 340.66,-133.41 340.66,-133.41 340.66,-147.87 340.66,-147.87 340.66,-153.87 334.66,-159.87 328.66,-159.87"/>
<text xml:space="preserve" text-anchor="middle" x="229.7" y="-141.99" font-family="Helvetica,sans-Serif" font-size="12.00">AWS SDKs</text>
<text xml:space="preserve" text-anchor="middle" x="229.7" y="-129.24" font-family="Helvetica,sans-Serif" font-size="12.00">Java SDK v2 and AWS SDK for Kotlin</text>
</g>
<!-- facade&#45;&gt;sdk -->
<g id="edge2" class="edge">
<title>facade&#45;&gt;sdk</title>
<path fill="none" stroke="#64748b" stroke-width="1.5" d="M229.7,-220.65C229.7,-220.65 229.7,-170.07 229.7,-170.07"/>
<polygon fill="#64748b" stroke="#64748b" stroke-width="1.5" points="232.33,-170.07 229.71,-162.57 227.08,-170.07 232.33,-170.07"/>
</g>
<!-- infra -->
<g id="node4" class="node">
<title>infra</title>
<path fill="#fff7ed" stroke="#f97316" d="M449.03,-64.01C449.03,-67.54 391.07,-70.41 319.7,-70.41 248.34,-70.41 190.37,-67.54 190.37,-64.01 190.37,-64.01 190.37,-6.4 190.37,-6.4 190.37,-2.87 248.34,0 319.7,0 391.07,0 449.03,-2.87 449.03,-6.4 449.03,-6.4 449.03,-64.01 449.03,-64.01"/>
<path fill="none" stroke="#f97316" d="M449.03,-64.01C449.03,-60.48 391.07,-57.61 319.7,-57.61 248.34,-57.61 190.37,-60.48 190.37,-64.01"/>
<text xml:space="preserve" text-anchor="middle" x="319.7" y="-42.93" font-family="Helvetica,sans-Serif" font-size="12.00">AWS services or local emulators</text>
<text xml:space="preserve" text-anchor="middle" x="319.7" y="-30.18" font-family="Helvetica,sans-Serif" font-size="12.00">S3, SQS, SNS, DynamoDB, KMS, SES,</text>
<text xml:space="preserve" text-anchor="middle" x="319.7" y="-17.43" font-family="Helvetica,sans-Serif" font-size="12.00">CloudWatch, Kinesis, STS, JDBC databases</text>
</g>
<!-- sdk&#45;&gt;infra -->
<g id="edge3" class="edge">
<title>sdk&#45;&gt;infra</title>
<path fill="none" stroke="#64748b" stroke-width="1.5" d="M265.52,-121.31C265.52,-121.31 265.52,-80.4 265.52,-80.4"/>
<polygon fill="#64748b" stroke="#64748b" stroke-width="1.5" points="268.14,-80.4 265.52,-72.9 262.89,-80.4 268.14,-80.4"/>
</g>
<!-- tests -->
<g id="node5" class="node">
<title>tests</title>
<path fill="#f3e8ff" stroke="#a855f7" d="M522.28,-359.29C522.28,-359.29 283.12,-359.29 283.12,-359.29 277.12,-359.29 271.12,-353.29 271.12,-347.29 271.12,-347.29 271.12,-332.83 271.12,-332.83 271.12,-326.83 277.12,-320.83 283.12,-320.83 283.12,-320.83 522.28,-320.83 522.28,-320.83 528.28,-320.83 534.28,-326.83 534.28,-332.83 534.28,-332.83 534.28,-347.29 534.28,-347.29 534.28,-353.29 528.28,-359.29 522.28,-359.29"/>
<text xml:space="preserve" text-anchor="middle" x="402.7" y="-341.41" font-family="Helvetica,sans-Serif" font-size="12.00">Verification examples</text>
<text xml:space="preserve" text-anchor="middle" x="402.7" y="-328.66" font-family="Helvetica,sans-Serif" font-size="12.00">LocalStack, Floci, PostgreSQL Testcontainers</text>
</g>
<!-- tests&#45;&gt;facade -->
<g id="edge4" class="edge">
<title>tests&#45;&gt;facade</title>
<path fill="none" stroke="#64748b" stroke-width="1.5" stroke-dasharray="5,2" d="M309.58,-320.36C309.58,-320.36 309.58,-269.78 309.58,-269.78"/>
<polygon fill="#64748b" stroke="#64748b" stroke-width="1.5" points="312.21,-269.78 309.58,-262.28 306.96,-269.78 312.21,-269.78"/>
<text xml:space="preserve" text-anchor="middle" x="294.08" y="-286.33" font-family="Helvetica,sans-Serif" font-size="10.00">exercise</text>
</g>
<!-- tests&#45;&gt;infra -->
<g id="edge5" class="edge">
<title>tests&#45;&gt;infra</title>
<path fill="none" stroke="#64748b" stroke-width="1.5" stroke-dasharray="5,2" d="M398.53,-320.53C398.53,-320.53 398.53,-80.1 398.53,-80.1"/>
<polygon fill="#64748b" stroke="#64748b" stroke-width="1.5" points="401.16,-80.1 398.54,-72.6 395.91,-80.1 401.16,-80.1"/>
<text xml:space="preserve" text-anchor="middle" x="419.95" y="-186.62" font-family="Helvetica,sans-Serif" font-size="10.00">emulate</text>
</g>
</g>
</svg>
