<?xml version="1.0" encoding="UTF-8" standalone="no"?>
<!DOCTYPE svg PUBLIC "-//W3C//DTD SVG 1.1//EN"
 "http://www.w3.org/Graphics/SVG/1.1/DTD/svg11.dtd">
<!-- Generated by graphviz version 15.0.0 (20260523.1842)
 -->
<!-- Title: G Pages: 1 -->
<svg width="743pt" height="220pt"
 viewBox="0.00 0.00 743.00 220.00" xmlns="http://www.w3.org/2000/svg" xmlns:xlink="http://www.w3.org/1999/xlink">
<g id="graph0" class="graph" transform="scale(1 1) rotate(0) translate(25.2 194.91)">
<title>G</title>
<polygon fill="#ffffff" stroke="none" points="-25.2,25.2 -25.2,-194.91 717.84,-194.91 717.84,25.2 -25.2,25.2"/>
<!-- props -->
<g id="node1" class="node">
<title>props</title>
<path fill="#e8f3ff" stroke="#5b8def" d="M134.16,-169.71C134.16,-169.71 12,-169.71 12,-169.71 6,-169.71 0,-163.71 0,-157.71 0,-157.71 0,-117 0,-117 0,-111 6,-105 12,-105 12,-105 134.16,-105 134.16,-105 140.16,-105 146.16,-111 146.16,-117 146.16,-117 146.16,-157.71 146.16,-157.71 146.16,-163.71 140.16,-169.71 134.16,-169.71"/>
<text xml:space="preserve" text-anchor="middle" x="73.08" y="-151.83" font-family="Architects Daughter" font-size="12.00">AwsProperties</text>
<text xml:space="preserve" text-anchor="middle" x="73.08" y="-134.58" font-family="Architects Daughter" font-size="12.00">global + service config</text>
<text xml:space="preserve" text-anchor="middle" x="73.08" y="-117.33" font-family="Architects Daughter" font-size="12.00">endpoint/credentials</text>
</g>
<!-- auto -->
<g id="node2" class="node">
<title>auto</title>
<path fill="#eaf7ef" stroke="#58a978" d="M309.57,-169.71C309.57,-169.71 212.16,-169.71 212.16,-169.71 206.16,-169.71 200.16,-163.71 200.16,-157.71 200.16,-157.71 200.16,-117 200.16,-117 200.16,-111 206.16,-105 212.16,-105 212.16,-105 309.57,-105 309.57,-105 315.57,-105 321.57,-111 321.57,-117 321.57,-117 321.57,-157.71 321.57,-157.71 321.57,-163.71 315.57,-169.71 309.57,-169.71"/>
<text xml:space="preserve" text-anchor="middle" x="260.87" y="-151.83" font-family="Architects Daughter" font-size="12.00">Auto&#45;configuration</text>
<text xml:space="preserve" text-anchor="middle" x="260.87" y="-134.58" font-family="Architects Daughter" font-size="12.00">conditional beans</text>
<text xml:space="preserve" text-anchor="middle" x="260.87" y="-117.33" font-family="Architects Daughter" font-size="12.00">client customizers</text>
</g>
<!-- props&#45;&gt;auto -->
<g id="edge1" class="edge">
<title>props&#45;&gt;auto</title>
<path fill="none" stroke="#3b82f6" stroke-width="1.8" d="M146.49,-137.35C146.49,-137.35 189.72,-137.35 189.72,-137.35"/>
<polygon fill="#3b82f6" stroke="#3b82f6" stroke-width="1.8" points="189.72,-139.98 197.22,-137.36 189.72,-134.73 189.72,-139.98"/>
</g>
<!-- ops -->
<g id="node3" class="node">
<title>ops</title>
<path fill="#e9f7f6" stroke="#45a7a1" d="M511.23,-169.71C511.23,-169.71 387.57,-169.71 387.57,-169.71 381.57,-169.71 375.57,-163.71 375.57,-157.71 375.57,-157.71 375.57,-117 375.57,-117 375.57,-111 381.57,-105 387.57,-105 387.57,-105 511.23,-105 511.23,-105 517.23,-105 523.23,-111 523.23,-117 523.23,-117 523.23,-157.71 523.23,-157.71 523.23,-163.71 517.23,-169.71 511.23,-169.71"/>
<text xml:space="preserve" text-anchor="middle" x="449.4" y="-151.83" font-family="Architects Daughter" font-size="12.00">Operations/templates</text>
<text xml:space="preserve" text-anchor="middle" x="449.4" y="-134.58" font-family="Architects Daughter" font-size="12.00">S3/SQS/SNS/KMS</text>
<text xml:space="preserve" text-anchor="middle" x="449.4" y="-117.33" font-family="Architects Daughter" font-size="12.00">CloudWatch/DynamoDB</text>
</g>
<!-- auto&#45;&gt;ops -->
<g id="edge2" class="edge">
<title>auto&#45;&gt;ops</title>
<path fill="none" stroke="#3b82f6" stroke-width="1.8" d="M321.82,-137.35C321.82,-137.35 364.92,-137.35 364.92,-137.35"/>
<polygon fill="#3b82f6" stroke="#3b82f6" stroke-width="1.8" points="364.92,-139.98 372.42,-137.36 364.92,-134.73 364.92,-139.98"/>
</g>
<!-- aws -->
<g id="node5" class="node">
<title>aws</title>
<path fill="#fff7ed" stroke="#f97316" d="M680.64,-116.71C680.64,-116.71 589.23,-116.71 589.23,-116.71 583.23,-116.71 577.23,-110.71 577.23,-104.71 577.23,-104.71 577.23,-64 577.23,-64 577.23,-58 583.23,-52 589.23,-52 589.23,-52 680.64,-52 680.64,-52 686.64,-52 692.64,-58 692.64,-64 692.64,-64 692.64,-104.71 692.64,-104.71 692.64,-110.71 686.64,-116.71 680.64,-116.71"/>
<text xml:space="preserve" text-anchor="middle" x="634.93" y="-98.83" font-family="Architects Daughter" font-size="12.00">AWS/emulator</text>
<text xml:space="preserve" text-anchor="middle" x="634.93" y="-81.58" font-family="Architects Daughter" font-size="12.00">Floci/LocalStack</text>
<text xml:space="preserve" text-anchor="middle" x="634.93" y="-64.33" font-family="Architects Daughter" font-size="12.00">real AWS</text>
</g>
<!-- ops&#45;&gt;aws -->
<g id="edge3" class="edge">
<title>ops&#45;&gt;aws</title>
<path fill="none" stroke="#3b82f6" stroke-width="1.8" d="M523.53,-110.85C523.53,-110.85 566.7,-110.85 566.7,-110.85"/>
<polygon fill="#3b82f6" stroke="#3b82f6" stroke-width="1.8" points="566.7,-113.48 574.2,-110.86 566.7,-108.23 566.7,-113.48"/>
</g>
<!-- env -->
<g id="node4" class="node">
<title>env</title>
<path fill="#fff3d9" stroke="#d6a441" d="M505.61,-64.71C505.61,-64.71 393.19,-64.71 393.19,-64.71 387.19,-64.71 381.19,-58.71 381.19,-52.71 381.19,-52.71 381.19,-12 381.19,-12 381.19,-6 387.19,0 393.19,0 393.19,0 505.61,0 505.61,0 511.61,0 517.61,-6 517.61,-12 517.61,-12 517.61,-52.71 517.61,-52.71 517.61,-58.71 511.61,-64.71 505.61,-64.71"/>
<text xml:space="preserve" text-anchor="middle" x="449.4" y="-46.83" font-family="Architects Daughter" font-size="12.00">Environment sources</text>
<text xml:space="preserve" text-anchor="middle" x="449.4" y="-29.58" font-family="Architects Daughter" font-size="12.00">S3/Secrets/SSM</text>
<text xml:space="preserve" text-anchor="middle" x="449.4" y="-12.33" font-family="Architects Daughter" font-size="12.00">refresh optional</text>
</g>
<!-- env&#45;&gt;aws -->
<g id="edge4" class="edge">
<title>env&#45;&gt;aws</title>
<path fill="none" stroke="#3b82f6" stroke-width="1.8" d="M517.96,-58.35C517.96,-58.35 566.78,-58.35 566.78,-58.35"/>
<polygon fill="#3b82f6" stroke="#3b82f6" stroke-width="1.8" points="566.78,-60.98 574.28,-58.36 566.78,-55.73 566.78,-60.98"/>
</g>
</g>
</svg>
