<?xml version="1.0" encoding="UTF-8" standalone="no"?>
<!DOCTYPE svg PUBLIC "-//W3C//DTD SVG 1.1//EN"
 "http://www.w3.org/Graphics/SVG/1.1/DTD/svg11.dtd">
<!-- Generated by graphviz version 15.0.0 (20260523.1842)
 -->
<!-- Title: aws_spring_boot_architecture_01 Pages: 1 -->
<svg width="649pt" height="665pt"
 viewBox="0.00 0.00 649.00 665.00" xmlns="http://www.w3.org/2000/svg" xmlns:xlink="http://www.w3.org/1999/xlink">
<g id="graph0" class="graph" transform="scale(1 1) rotate(0) translate(25.2 640.22)">
<title>aws_spring_boot_architecture_01</title>
<polygon fill="#ffffff" stroke="none" points="-25.2,25.2 -25.2,-640.22 623.61,-640.22 623.61,25.2 -25.2,25.2"/>
<!-- app -->
<g id="node1" class="node">
<title>app</title>
<path fill="#e8f3ff" stroke="#5b8def" d="M316.28,-615.02C316.28,-615.02 183.62,-615.02 183.62,-615.02 177.62,-615.02 171.62,-609.02 171.62,-603.02 171.62,-603.02 171.62,-579.56 171.62,-579.56 171.62,-573.56 177.62,-567.56 183.62,-567.56 183.62,-567.56 316.28,-567.56 316.28,-567.56 322.28,-567.56 328.28,-573.56 328.28,-579.56 328.28,-579.56 328.28,-603.02 328.28,-603.02 328.28,-609.02 322.28,-615.02 316.28,-615.02"/>
<text xml:space="preserve" text-anchor="middle" x="249.95" y="-597.14" font-family="Architects Daughter" font-size="12.00">Spring Boot application</text>
<text xml:space="preserve" text-anchor="middle" x="249.95" y="-579.89" font-family="Architects Daughter" font-size="12.00">controllers and services</text>
</g>
<!-- props -->
<g id="node2" class="node">
<title>props</title>
<path fill="#eaf7ef" stroke="#58a978" d="M323.78,-516.56C323.78,-516.56 176.12,-516.56 176.12,-516.56 170.12,-516.56 164.12,-510.56 164.12,-504.56 164.12,-504.56 164.12,-481.1 164.12,-481.1 164.12,-475.1 170.12,-469.1 176.12,-469.1 176.12,-469.1 323.78,-469.1 323.78,-469.1 329.78,-469.1 335.78,-475.1 335.78,-481.1 335.78,-481.1 335.78,-504.56 335.78,-504.56 335.78,-510.56 329.78,-516.56 323.78,-516.56"/>
<text xml:space="preserve" text-anchor="middle" x="249.95" y="-498.68" font-family="Architects Daughter" font-size="12.00">AwsProperties</text>
<text xml:space="preserve" text-anchor="middle" x="249.95" y="-481.43" font-family="Architects Daughter" font-size="12.00">region, endpoint, credentials</text>
</g>
<!-- app&#45;&gt;props -->
<g id="edge1" class="edge">
<title>app&#45;&gt;props</title>
<path fill="none" stroke="#64748b" stroke-width="1.5" d="M249.95,-567.2C249.95,-567.2 249.95,-526.78 249.95,-526.78"/>
<polygon fill="#64748b" stroke="#64748b" stroke-width="1.5" points="252.58,-526.78 249.96,-519.28 247.33,-526.78 252.58,-526.78"/>
</g>
<!-- auto -->
<g id="node3" class="node">
<title>auto</title>
<path fill="#f4f7fa" stroke="#8ca0b3" d="M325.28,-418.1C325.28,-418.1 174.62,-418.1 174.62,-418.1 168.62,-418.1 162.62,-412.1 162.62,-406.1 162.62,-406.1 162.62,-382.64 162.62,-382.64 162.62,-376.64 168.62,-370.64 174.62,-370.64 174.62,-370.64 325.28,-370.64 325.28,-370.64 331.28,-370.64 337.28,-376.64 337.28,-382.64 337.28,-382.64 337.28,-406.1 337.28,-406.1 337.28,-412.1 331.28,-418.1 325.28,-418.1"/>
<text xml:space="preserve" text-anchor="middle" x="249.95" y="-400.22" font-family="Architects Daughter" font-size="12.00">AwsAutoConfiguration</text>
<text xml:space="preserve" text-anchor="middle" x="249.95" y="-382.97" font-family="Architects Daughter" font-size="12.00">common SDK client defaults</text>
</g>
<!-- props&#45;&gt;auto -->
<g id="edge2" class="edge">
<title>props&#45;&gt;auto</title>
<path fill="none" stroke="#64748b" stroke-width="1.5" d="M249.95,-468.74C249.95,-468.74 249.95,-428.32 249.95,-428.32"/>
<polygon fill="#64748b" stroke="#64748b" stroke-width="1.5" points="252.58,-428.32 249.96,-420.82 247.33,-428.32 252.58,-428.32"/>
</g>
<!-- s3 -->
<g id="node4" class="node">
<title>s3</title>
<path fill="#fff3d9" stroke="#d6a441" d="M119.91,-236.18C119.91,-236.18 12,-236.18 12,-236.18 6,-236.18 0,-230.18 0,-224.18 0,-224.18 0,-200.72 0,-200.72 0,-194.72 6,-188.72 12,-188.72 12,-188.72 119.91,-188.72 119.91,-188.72 125.91,-188.72 131.91,-194.72 131.91,-200.72 131.91,-200.72 131.91,-224.18 131.91,-224.18 131.91,-230.18 125.91,-236.18 119.91,-236.18"/>
<text xml:space="preserve" text-anchor="middle" x="65.95" y="-218.3" font-family="Architects Daughter" font-size="12.00">S3AutoConfiguration</text>
<text xml:space="preserve" text-anchor="middle" x="65.95" y="-201.05" font-family="Architects Daughter" font-size="12.00">S3Operations</text>
</g>
<!-- auto&#45;&gt;s3 -->
<g id="edge3" class="edge">
<title>auto&#45;&gt;s3</title>
<path fill="none" stroke="#64748b" stroke-width="1.5" d="M190.09,-370.15C190.09,-320.54 190.09,-212 190.09,-212 190.09,-212 142.16,-212 142.16,-212"/>
<polygon fill="#64748b" stroke="#64748b" stroke-width="1.5" points="142.16,-209.38 134.66,-212 142.16,-214.63 142.16,-209.38"/>
</g>
<!-- sqs -->
<g id="node5" class="node">
<title>sqs</title>
<path fill="#fdecef" stroke="#dc6b82" d="M233.03,-163.72C233.03,-163.72 104.88,-163.72 104.88,-163.72 98.88,-163.72 92.87,-157.72 92.87,-151.72 92.87,-151.72 92.87,-128.26 92.87,-128.26 92.87,-122.26 98.87,-116.26 104.87,-116.26 104.87,-116.26 233.03,-116.26 233.03,-116.26 239.03,-116.26 245.03,-122.26 245.03,-128.26 245.03,-128.26 245.03,-151.72 245.03,-151.72 245.03,-157.72 239.03,-163.72 233.03,-163.72"/>
<text xml:space="preserve" text-anchor="middle" x="168.95" y="-145.84" font-family="Architects Daughter" font-size="12.00">SqsAutoConfiguration</text>
<text xml:space="preserve" text-anchor="middle" x="168.95" y="-128.59" font-family="Architects Daughter" font-size="12.00">SqsOperations, listeners</text>
</g>
<!-- auto&#45;&gt;sqs -->
<g id="edge4" class="edge">
<title>auto&#45;&gt;sqs</title>
<path fill="none" stroke="#64748b" stroke-width="1.5" d="M217.56,-370.44C217.56,-370.44 217.56,-173.81 217.56,-173.81"/>
<polygon fill="#64748b" stroke="#64748b" stroke-width="1.5" points="220.19,-173.81 217.57,-166.31 214.94,-173.81 220.19,-173.81"/>
</g>
<!-- dax -->
<g id="node6" class="node">
<title>dax</title>
<path fill="#ddf8f6" stroke="#2f9e96" d="M433.03,-308.64C433.03,-308.64 262.88,-308.64 262.88,-308.64 256.88,-308.64 250.88,-302.64 250.88,-296.64 250.88,-296.64 250.88,-273.18 250.88,-273.18 250.88,-267.18 256.88,-261.18 262.88,-261.18 262.88,-261.18 433.03,-261.18 433.03,-261.18 439.03,-261.18 445.03,-267.18 445.03,-273.18 445.03,-273.18 445.03,-296.64 445.03,-296.64 445.03,-302.64 439.03,-308.64 433.03,-308.64"/>
<text xml:space="preserve" text-anchor="middle" x="347.95" y="-290.76" font-family="Architects Daughter" font-size="12.00">DynamoDB DAX</text>
<text xml:space="preserve" text-anchor="middle" x="347.95" y="-273.51" font-family="Architects Daughter" font-size="12.00">DynamoDbDaxAutoConfiguration</text>
</g>
<!-- auto&#45;&gt;dax -->
<g id="edge5" class="edge">
<title>auto&#45;&gt;dax</title>
<path fill="none" stroke="#2f9e96" stroke-width="1.5" d="M294.08,-370.35C294.08,-370.35 294.08,-318.64 294.08,-318.64"/>
<polygon fill="#2f9e96" stroke="#2f9e96" stroke-width="1.5" points="296.71,-318.64 294.08,-311.14 291.46,-318.64 296.71,-318.64"/>
<text xml:space="preserve" text-anchor="middle" x="339.83" y="-336.14" font-family="Comic Mono" font-size="10.00" fill="#2f9e96">DAX enabled</text>
</g>
<!-- kms -->
<g id="node8" class="node">
<title>kms</title>
<path fill="#f1ecff" stroke="#8a72d6" d="M586.41,-236.18C586.41,-236.18 469.5,-236.18 469.5,-236.18 463.5,-236.18 457.5,-230.18 457.5,-224.18 457.5,-224.18 457.5,-200.72 457.5,-200.72 457.5,-194.72 463.5,-188.72 469.5,-188.72 469.5,-188.72 586.41,-188.72 586.41,-188.72 592.41,-188.72 598.41,-194.72 598.41,-200.72 598.41,-200.72 598.41,-224.18 598.41,-224.18 598.41,-230.18 592.41,-236.18 586.41,-236.18"/>
<text xml:space="preserve" text-anchor="middle" x="527.95" y="-218.3" font-family="Architects Daughter" font-size="12.00">KmsAutoConfiguration</text>
<text xml:space="preserve" text-anchor="middle" x="527.95" y="-201.05" font-family="Architects Daughter" font-size="12.00">KmsOperations</text>
</g>
<!-- auto&#45;&gt;kms -->
<g id="edge7" class="edge">
<title>auto&#45;&gt;kms</title>
<path fill="none" stroke="#64748b" stroke-width="1.5" d="M337.53,-394C419.02,-394 527.95,-394 527.95,-394 527.95,-394 527.95,-246.33 527.95,-246.33"/>
<polygon fill="#64748b" stroke="#64748b" stroke-width="1.5" points="530.58,-246.33 527.96,-238.83 525.33,-246.33 530.58,-246.33"/>
</g>
<!-- aws -->
<g id="node9" class="node">
<title>aws</title>
<path fill="#fff0e3" stroke="#f47b36" d="M351.03,-59.33C351.03,-62.6 311.56,-65.26 262.95,-65.26 214.35,-65.26 174.88,-62.6 174.88,-59.33 174.88,-59.33 174.88,-5.93 174.88,-5.93 174.88,-2.66 214.35,0 262.95,0 311.56,0 351.03,-2.66 351.03,-5.93 351.03,-5.93 351.03,-59.33 351.03,-59.33"/>
<path fill="none" stroke="#f47b36" d="M351.03,-59.33C351.03,-56.05 311.56,-53.39 262.95,-53.39 214.35,-53.39 174.88,-56.05 174.88,-59.33"/>
<text xml:space="preserve" text-anchor="middle" x="262.95" y="-38.48" font-family="Architects Daughter" font-size="12.00">AWS services</text>
<text xml:space="preserve" text-anchor="middle" x="262.95" y="-21.23" font-family="Architects Daughter" font-size="12.00">DAX, LocalStack, Floci, RDS</text>
</g>
<!-- s3&#45;&gt;aws -->
<g id="edge8" class="edge">
<title>s3&#45;&gt;aws</title>
<path fill="none" stroke="#64748b" stroke-width="1.5" d="M132.39,-201C188.77,-201 260.58,-201 260.58,-201 260.58,-201 260.58,-75.26 260.58,-75.26"/>
<polygon fill="#64748b" stroke="#64748b" stroke-width="1.5" points="263.21,-75.26 260.58,-67.76 257.96,-75.26 263.21,-75.26"/>
</g>
<!-- sqs&#45;&gt;aws -->
<g id="edge9" class="edge">
<title>sqs&#45;&gt;aws</title>
<path fill="none" stroke="#64748b" stroke-width="1.5" d="M209.95,-115.89C209.95,-115.89 209.95,-74.96 209.95,-74.96"/>
<polygon fill="#64748b" stroke="#64748b" stroke-width="1.5" points="212.58,-74.96 209.96,-67.46 207.33,-74.96 212.58,-74.96"/>
</g>
<!-- ddb -->
<g id="node7" class="node">
<title>ddb</title>
<path fill="#e9f7f6" stroke="#45a7a1" d="M465.91,-163.72C465.91,-163.72 292,-163.72 292,-163.72 286,-163.72 280,-157.72 280,-151.72 280,-151.72 280,-128.26 280,-128.26 280,-122.26 286,-116.26 292,-116.26 292,-116.26 465.91,-116.26 465.91,-116.26 471.91,-116.26 477.91,-122.26 477.91,-128.26 477.91,-128.26 477.91,-151.72 477.91,-151.72 477.91,-157.72 471.91,-163.72 465.91,-163.72"/>
<text xml:space="preserve" text-anchor="middle" x="378.95" y="-145.84" font-family="Architects Daughter" font-size="12.00">DynamoDB auto&#45;config</text>
<text xml:space="preserve" text-anchor="middle" x="378.95" y="-128.59" font-family="Architects Daughter" font-size="12.00">enhanced client and repositories</text>
</g>
<!-- dax&#45;&gt;ddb -->
<g id="edge6" class="edge">
<title>dax&#45;&gt;ddb</title>
<path fill="none" stroke="#2f9e96" stroke-width="1.5" d="M362.52,-260.98C362.52,-260.98 362.52,-173.72 362.52,-173.72"/>
<polygon fill="#2f9e96" stroke="#2f9e96" stroke-width="1.5" points="365.14,-173.72 362.52,-166.22 359.89,-173.72 365.14,-173.72"/>
<text xml:space="preserve" text-anchor="middle" x="395.58" y="-208.95" font-family="Comic Mono" font-size="10.00" fill="#2f9e96">DAX&#45;backed client</text>
</g>
<!-- ddb&#45;&gt;aws -->
<g id="edge10" class="edge">
<title>ddb&#45;&gt;aws</title>
<path fill="none" stroke="#64748b" stroke-width="1.5" d="M315.52,-115.89C315.52,-115.89 315.52,-74.96 315.52,-74.96"/>
<polygon fill="#64748b" stroke="#64748b" stroke-width="1.5" points="318.14,-74.96 315.52,-67.46 312.89,-74.96 318.14,-74.96"/>
</g>
<!-- kms&#45;&gt;aws -->
<g id="edge11" class="edge">
<title>kms&#45;&gt;aws</title>
<path fill="none" stroke="#64748b" stroke-width="1.5" d="M457.21,-224C380.93,-224 270.29,-224 270.29,-224 270.29,-224 270.29,-75.3 270.29,-75.3"/>
<polygon fill="#64748b" stroke="#64748b" stroke-width="1.5" points="272.92,-75.3 270.29,-67.8 267.67,-75.3 272.92,-75.3"/>
</g>
</g>
</svg>
