<?xml version="1.0" encoding="UTF-8" standalone="no"?>
<!DOCTYPE svg PUBLIC "-//W3C//DTD SVG 1.1//EN"
 "http://www.w3.org/Graphics/SVG/1.1/DTD/svg11.dtd">
<!-- Generated by graphviz version 15.0.0 (20260523.1842)
 -->
<!-- Title: G Pages: 1 -->
<svg width="699pt" height="162pt"
 viewBox="0.00 0.00 699.00 162.00" xmlns="http://www.w3.org/2000/svg" xmlns:xlink="http://www.w3.org/1999/xlink">
<g id="graph0" class="graph" transform="scale(1 1) rotate(0) translate(25.2 136.91)">
<title>G</title>
<polygon fill="#ffffff" stroke="none" points="-25.2,25.2 -25.2,-136.91 673.59,-136.91 673.59,25.2 -25.2,25.2"/>
<!-- route -->
<g id="node1" class="node">
<title>route</title>
<path fill="#e8f3ff" stroke="#5b8def" d="M278.82,-111.71C278.82,-111.71 179.16,-111.71 179.16,-111.71 173.16,-111.71 167.16,-105.71 167.16,-99.71 167.16,-99.71 167.16,-59 167.16,-59 167.16,-53 173.16,-47 179.16,-47 179.16,-47 278.82,-47 278.82,-47 284.82,-47 290.82,-53 290.82,-59 290.82,-59 290.82,-99.71 290.82,-99.71 290.82,-105.71 284.82,-111.71 278.82,-111.71"/>
<text xml:space="preserve" text-anchor="middle" x="228.99" y="-93.83" font-family="Architects Daughter" font-size="12.00">Spring listener app</text>
<text xml:space="preserve" text-anchor="middle" x="228.99" y="-76.58" font-family="Architects Daughter" font-size="12.00">@SqsListener</text>
<text xml:space="preserve" text-anchor="middle" x="228.99" y="-59.33" font-family="Architects Daughter" font-size="12.00">SNS fanout</text>
</g>
<!-- module -->
<g id="node2" class="node">
<title>module</title>
<path fill="#eaf7ef" stroke="#58a978" d="M459.48,-111.71C459.48,-111.71 356.82,-111.71 356.82,-111.71 350.82,-111.71 344.82,-105.71 344.82,-99.71 344.82,-99.71 344.82,-59 344.82,-59 344.82,-53 350.82,-47 356.82,-47 356.82,-47 459.48,-47 459.48,-47 465.48,-47 471.48,-53 471.48,-59 471.48,-59 471.48,-99.71 471.48,-99.71 471.48,-105.71 465.48,-111.71 459.48,-111.71"/>
<text xml:space="preserve" text-anchor="middle" x="408.15" y="-93.83" font-family="Architects Daughter" font-size="12.00">SqsOperations</text>
<text xml:space="preserve" text-anchor="middle" x="408.15" y="-76.58" font-family="Architects Daughter" font-size="12.00">typed/manual ack</text>
<text xml:space="preserve" text-anchor="middle" x="408.15" y="-59.33" font-family="Architects Daughter" font-size="12.00">retry interceptors</text>
</g>
<!-- route&#45;&gt;module -->
<g id="edge1" class="edge">
<title>route&#45;&gt;module</title>
<path fill="none" stroke="#3b82f6" stroke-width="1.8" d="M291.15,-79.35C291.15,-79.35 334.36,-79.35 334.36,-79.35"/>
<polygon fill="#3b82f6" stroke="#3b82f6" stroke-width="1.8" points="334.36,-81.98 341.86,-79.36 334.36,-76.73 334.36,-81.98"/>
</g>
<!-- service -->
<g id="node3" class="node">
<title>service</title>
<path fill="#fff7ed" stroke="#f97316" d="M636.39,-64.71C636.39,-64.71 537.48,-64.71 537.48,-64.71 531.48,-64.71 525.48,-58.71 525.48,-52.71 525.48,-52.71 525.48,-12 525.48,-12 525.48,-6 531.48,0 537.48,0 537.48,0 636.39,0 636.39,0 642.39,0 648.39,-6 648.39,-12 648.39,-12 648.39,-52.71 648.39,-52.71 648.39,-58.71 642.39,-64.71 636.39,-64.71"/>
<text xml:space="preserve" text-anchor="middle" x="586.93" y="-46.83" font-family="Architects Daughter" font-size="12.00">SQS/SNS</text>
<text xml:space="preserve" text-anchor="middle" x="586.93" y="-29.58" font-family="Architects Daughter" font-size="12.00">Floci subscriptions</text>
<text xml:space="preserve" text-anchor="middle" x="586.93" y="-12.33" font-family="Architects Daughter" font-size="12.00">queue fanout</text>
</g>
<!-- module&#45;&gt;service -->
<g id="edge2" class="edge">
<title>module&#45;&gt;service</title>
<path fill="none" stroke="#3b82f6" stroke-width="1.8" d="M471.94,-55.85C471.94,-55.85 515.05,-55.85 515.05,-55.85"/>
<polygon fill="#3b82f6" stroke="#3b82f6" stroke-width="1.8" points="515.05,-58.48 522.55,-55.86 515.05,-53.23 515.05,-58.48"/>
</g>
<!-- tests -->
<g id="node4" class="node">
<title>tests</title>
<path fill="#e9f7f6" stroke="#45a7a1" d="M101.16,-64.71C101.16,-64.71 12,-64.71 12,-64.71 6,-64.71 0,-58.71 0,-52.71 0,-52.71 0,-12 0,-12 0,-6 6,0 12,0 12,0 101.16,0 101.16,0 107.16,0 113.16,-6 113.16,-12 113.16,-12 113.16,-52.71 113.16,-52.71 113.16,-58.71 107.16,-64.71 101.16,-64.71"/>
<text xml:space="preserve" text-anchor="middle" x="56.58" y="-46.83" font-family="Architects Daughter" font-size="12.00">Fanout tests</text>
<text xml:space="preserve" text-anchor="middle" x="56.58" y="-29.58" font-family="Architects Daughter" font-size="12.00">compile + AOT</text>
<text xml:space="preserve" text-anchor="middle" x="56.58" y="-12.33" font-family="Architects Daughter" font-size="12.00">observer events</text>
</g>
<!-- tests&#45;&gt;route -->
<g id="edge3" class="edge">
<title>tests&#45;&gt;route</title>
<path fill="none" stroke="#3b82f6" stroke-width="1.8" d="M113.51,-55.85C113.51,-55.85 156.55,-55.85 156.55,-55.85"/>
<polygon fill="#3b82f6" stroke="#3b82f6" stroke-width="1.8" points="156.55,-58.48 164.05,-55.86 156.55,-53.23 156.55,-58.48"/>
</g>
<!-- tests&#45;&gt;service -->
<g id="edge4" class="edge">
<title>tests&#45;&gt;service</title>
<path fill="none" stroke="#3b82f6" stroke-width="1.8" d="M113.59,-23.5C113.59,-23.5 515.14,-23.5 515.14,-23.5"/>
<polygon fill="#3b82f6" stroke="#3b82f6" stroke-width="1.8" points="515.14,-26.13 522.64,-23.5 515.14,-20.88 515.14,-26.13"/>
</g>
</g>
</svg>
