<?xml version="1.0" encoding="UTF-8" standalone="no"?>
<!DOCTYPE svg PUBLIC "-//W3C//DTD SVG 1.1//EN"
 "http://www.w3.org/Graphics/SVG/1.1/DTD/svg11.dtd">
<!-- Generated by graphviz version 15.0.0 (20260523.1842)
 -->
<!-- Title: G Pages: 1 -->
<svg width="755pt" height="162pt"
 viewBox="0.00 0.00 755.00 162.00" xmlns="http://www.w3.org/2000/svg" xmlns:xlink="http://www.w3.org/1999/xlink">
<g id="graph0" class="graph" transform="scale(1 1) rotate(0) translate(25.2 136.91)">
<title>G</title>
<polygon fill="#ffffff" stroke="none" points="-25.2,25.2 -25.2,-136.91 729.84,-136.91 729.84,25.2 -25.2,25.2"/>
<!-- route -->
<g id="node1" class="node">
<title>route</title>
<path fill="#e8f3ff" stroke="#5b8def" d="M296.82,-111.71C296.82,-111.71 197.91,-111.71 197.91,-111.71 191.91,-111.71 185.91,-105.71 185.91,-99.71 185.91,-99.71 185.91,-59 185.91,-59 185.91,-53 191.91,-47 197.91,-47 197.91,-47 296.82,-47 296.82,-47 302.82,-47 308.82,-53 308.82,-59 308.82,-59 308.82,-99.71 308.82,-99.71 308.82,-105.71 302.82,-111.71 296.82,-111.71"/>
<text xml:space="preserve" text-anchor="middle" x="247.37" y="-93.83" font-family="Architects Daughter" font-size="12.00">Spring services</text>
<text xml:space="preserve" text-anchor="middle" x="247.37" y="-76.58" font-family="Architects Daughter" font-size="12.00">controller/service</text>
<text xml:space="preserve" text-anchor="middle" x="247.37" y="-59.33" font-family="Architects Daughter" font-size="12.00">coroutine flow</text>
</g>
<!-- module -->
<g id="node2" class="node">
<title>module</title>
<path fill="#eaf7ef" stroke="#58a978" d="M492.48,-111.71C492.48,-111.71 374.82,-111.71 374.82,-111.71 368.82,-111.71 362.82,-105.71 362.82,-99.71 362.82,-99.71 362.82,-59 362.82,-59 362.82,-53 368.82,-47 374.82,-47 374.82,-47 492.48,-47 492.48,-47 498.48,-47 504.48,-53 504.48,-59 504.48,-59 504.48,-99.71 504.48,-99.71 504.48,-105.71 498.48,-111.71 492.48,-111.71"/>
<text xml:space="preserve" text-anchor="middle" x="433.65" y="-93.83" font-family="Architects Daughter" font-size="12.00">DynamoDB repository</text>
<text xml:space="preserve" text-anchor="middle" x="433.65" y="-76.58" font-family="Architects Daughter" font-size="12.00">Spring auto&#45;config</text>
<text xml:space="preserve" text-anchor="middle" x="433.65" y="-59.33" font-family="Architects Daughter" font-size="12.00">table operations</text>
</g>
<!-- route&#45;&gt;module -->
<g id="edge1" class="edge">
<title>route&#45;&gt;module</title>
<path fill="none" stroke="#3b82f6" stroke-width="1.8" d="M309.14,-79.35C309.14,-79.35 352.15,-79.35 352.15,-79.35"/>
<polygon fill="#3b82f6" stroke="#3b82f6" stroke-width="1.8" points="352.15,-81.98 359.65,-79.36 352.15,-76.73 352.15,-81.98"/>
</g>
<!-- service -->
<g id="node3" class="node">
<title>service</title>
<path fill="#fff7ed" stroke="#f97316" d="M692.64,-64.71C692.64,-64.71 570.48,-64.71 570.48,-64.71 564.48,-64.71 558.48,-58.71 558.48,-52.71 558.48,-52.71 558.48,-12 558.48,-12 558.48,-6 564.48,0 570.48,0 570.48,0 692.64,0 692.64,0 698.64,0 704.64,-6 704.64,-12 704.64,-12 704.64,-52.71 704.64,-52.71 704.64,-58.71 698.64,-64.71 692.64,-64.71"/>
<text xml:space="preserve" text-anchor="middle" x="631.56" y="-46.83" font-family="Architects Daughter" font-size="12.00">DynamoDB table</text>
<text xml:space="preserve" text-anchor="middle" x="631.56" y="-29.58" font-family="Architects Daughter" font-size="12.00">Floci emulator</text>
<text xml:space="preserve" text-anchor="middle" x="631.56" y="-12.33" font-family="Architects Daughter" font-size="12.00">repository verification</text>
</g>
<!-- module&#45;&gt;service -->
<g id="edge2" class="edge">
<title>module&#45;&gt;service</title>
<path fill="none" stroke="#3b82f6" stroke-width="1.8" d="M504.82,-55.85C504.82,-55.85 547.8,-55.85 547.8,-55.85"/>
<polygon fill="#3b82f6" stroke="#3b82f6" stroke-width="1.8" points="547.8,-58.48 555.3,-55.86 547.8,-53.23 547.8,-58.48"/>
</g>
<!-- tests -->
<g id="node4" class="node">
<title>tests</title>
<path fill="#e9f7f6" stroke="#45a7a1" d="M119.91,-64.71C119.91,-64.71 12,-64.71 12,-64.71 6,-64.71 0,-58.71 0,-52.71 0,-52.71 0,-12 0,-12 0,-6 6,0 12,0 12,0 119.91,0 119.91,0 125.91,0 131.91,-6 131.91,-12 131.91,-12 131.91,-52.71 131.91,-52.71 131.91,-58.71 125.91,-64.71 119.91,-64.71"/>
<text xml:space="preserve" text-anchor="middle" x="65.96" y="-46.83" font-family="Architects Daughter" font-size="12.00">Service tests</text>
<text xml:space="preserve" text-anchor="middle" x="65.96" y="-29.58" font-family="Architects Daughter" font-size="12.00">compile + integration</text>
<text xml:space="preserve" text-anchor="middle" x="65.96" y="-12.33" font-family="Architects Daughter" font-size="12.00">README scenario</text>
</g>
<!-- tests&#45;&gt;route -->
<g id="edge3" class="edge">
<title>tests&#45;&gt;route</title>
<path fill="none" stroke="#3b82f6" stroke-width="1.8" d="M132.22,-55.85C132.22,-55.85 175.28,-55.85 175.28,-55.85"/>
<polygon fill="#3b82f6" stroke="#3b82f6" stroke-width="1.8" points="175.28,-58.48 182.78,-55.86 175.28,-53.23 175.28,-58.48"/>
</g>
<!-- tests&#45;&gt;service -->
<g id="edge4" class="edge">
<title>tests&#45;&gt;service</title>
<path fill="none" stroke="#3b82f6" stroke-width="1.8" d="M132.22,-23.5C132.22,-23.5 547.82,-23.5 547.82,-23.5"/>
<polygon fill="#3b82f6" stroke="#3b82f6" stroke-width="1.8" points="547.82,-26.13 555.32,-23.5 547.82,-20.88 547.82,-26.13"/>
</g>
</g>
</svg>
